<?xml version="1.0" encoding="UTF-8"?>
<svg id="Layer_2" data-name="Layer 2" xmlns="http://www.w3.org/2000/svg" viewBox="0 0 2428.47 2650.68">
  <defs>
    <style>
      .cls-1 {
        fill: #006e5c;
      }

      .cls-1, .cls-2, .cls-3 {
        stroke-width: 0px;
      }

      .cls-2 {
        fill: #b5c0b8;
      }

      .cls-3 {
        fill: #d5af34;
      }
    </style>
  </defs>
  <g id="Layer_1-2" data-name="Layer 1">
    <g>
      <path class="cls-1" d="m167.89,1277.23s-91.76-528.62,383-829.84c474.76-301.22,975.46-3.99,1013.36,71.81l115.7-113.7S1123.41-127.12,403.28,353.63c0,0-542.59,371.03-369.04,1059.24l133.65-135.65Z"/>
      <path class="cls-3" d="m2093.07,686.96c42.69-69.03,38.26-162.39,91.16-223.95,29.63-34.48,73.17-53.61,116.37-67.77,43.2-14.16,88.11-24.68,127.87-46.73-66.22-39.85-154.01-36.57-214.11-85.15-38.09-30.78-58.94-77.92-73.63-124.64-14.69-46.72-24.8-95.38-47.6-138.72-23.35,66.93-46.71,133.86-70.06,200.8-9.45,27.08-20.98,52.69-48.8,64.22-35.27,14.63-71.6,26.01-107.5,38.95-36.29,13.08-72.59,26.16-108.88,39.25,64.48,41.55,152.25,37.6,212.05,85.63,37.63,30.23,58.23,76.65,73.15,122.55,14.93,45.9,25.84,93.76,49.98,135.56Z"/>
      <path class="cls-2" d="m432.44,1830.02c110.63-107.13,221.27-214.26,331.9-321.39l337.12,307.2,640.33-652.3c13.96-45.88-17.95-193.5-17.95-193.5l-622.38,622.38-321.16-319.17c-139.48,143.06-278.97,286.12-418.45,429.18,7.36,12.19,14.77,24.87,22.17,38.02,7.66,13.61,12.26,22.47,22.12,40.91,6.2,11.59,15.18,28.28,26.3,48.67Z"/>
      <path class="cls-1" d="m2232.42,1663.8c-32.39,62.81-95.37,77.23-103.63,78.97l-107.72,29.92-9.98,349.09s-33.91,159.59-217.43,167.87h-297.96v361.03H399.56v-158.77c-.08-.08-.16-.16-.24-.24-4.03-213.13-11.03-437.19-119.96-620.42-53.99-90.8-131.09-167.57-174.87-263.71-6.7-14.7-12.68-30.62-10.48-46.62,2.77-20.22,17.86-36.23,32.19-50.76,115.55-115.56,230.71-231.86,344.18-349.44,101.16-104.82,204.62-207.52,306.89-311.25,109.35,108.28,218.7,216.57,328.04,324.85,232.29-230.46,464.58-460.93,696.86-691.39,38.09,35.14,76.18,70.28,114.27,105.42-269.77,269.74-539.55,539.47-809.33,809.21-108.98-105.93-217.96-211.87-326.93-317.8-166.43,166.68-332.86,333.37-499.29,500.05,25.1,33.12,53.8,74.04,83.14,122.61,14.73,24.38,29.62,50.7,44.29,78.93,34.23,65.85,67.28,142.1,94.38,228.54,62.25,198.54,68.09,371.01,63.34,482.02h770.9v-206.56s-462.88-59.84-576.58-534.6c-3.36-28.03-5.69-58.64-6.24-91.52-.94-56.47,3.57-107.16,10.23-150.6,49.93,45.49,99.85,90.99,149.78,136.49,2.31,46.79,14.92,176.17,111.54,297.13,120.12,150.39,284.97,181.15,325.15,187.51,88.44,3.32,176.87,6.65,265.31,9.97,67.16-3.32,134.32-6.65,201.48-9.97,13.96-3.33,27.92-6.65,41.89-9.97,2.66-157.59,5.32-315.18,7.98-472.77l221.42-49.87-223.42-377.02s-9.97-299.22-49.87-351.09l114.37-120.35s90.43,146.95,93.76,426.89l212.78,357.73c3.37,7.7,28.37,67.52-4.09,130.49Z"/>
    </g>
  </g>
</svg>