<?xml version="1.0" encoding="UTF-8"?>
<svg id="Layer_2" data-name="Layer 2" xmlns="http://www.w3.org/2000/svg" viewBox="0 0 713.28 713.28">
  <defs>
    <style>
      .cls-1 {
        fill: #fff;
      }

      .cls-1, .cls-2 {
        stroke-width: 0px;
      }

      .cls-2 {
        fill: #006f5d;
      }
    </style>
  </defs>
  <g id="Layer_1-2" data-name="Layer 1">
    <path class="cls-2" d="m382.98,562.72v44.34h-165.49c1.02-23.83-.23-60.85-13.59-103.47-4.46-14.21-9.66-27.13-15.16-38.75.03.05.05.09.08.14,23.74-23,47.49-46,71.24-69l18.85,17.18c-6.28-5.73-12.57-11.45-18.85-17.17-1.43,9.32-2.39,20.2-2.19,32.32.12,7.06.62,13.63,1.34,19.65,24.4,101.91,123.77,114.76,123.77,114.76Z"/>
    <path class="cls-2" d="m632.89,0H80.39C35.99,0,0,35.99,0,80.39v552.5c0,44.4,35.99,80.39,80.39,80.39h552.5c44.4,0,80.39-35.99,80.39-80.39V80.39c0-44.4-35.99-80.39-80.39-80.39Zm-57.69,429.29c-6.95,13.49-20.47,16.58-22.24,16.96l-23.12,6.42-2.15,74.94s-7.28,34.25-46.67,36.03h-63.96v77.5h-235.3v-34.08s-.04-.04-.06-.05c-.86-45.75-2.36-93.85-25.75-133.18-11.59-19.49-28.14-35.97-37.53-56.61-1.44-3.16-2.73-6.58-2.25-10.01.59-4.34,3.83-7.78,6.91-10.9,24.8-24.8,49.52-49.77,73.88-75.01,21.71-22.5,43.92-44.54,65.88-66.81,23.47,23.24,46.94,46.49,70.41,69.73,49.87-49.47,99.73-98.94,149.59-148.41,8.18,7.54,16.36,15.08,24.53,22.63-57.91,57.9-115.82,115.8-173.73,173.7-23.39-22.74-46.79-45.48-70.18-68.22-35.73,35.78-71.45,71.57-107.18,107.35,5.34,7.03,11.43,15.72,17.67,26.01,29.85-30.61,59.7-61.21,89.54-91.82l68.94,68.51,133.6-133.6s6.85,31.69,3.86,41.53l-137.46,140.03-40.21-36.64c.49,10.06,3.21,37.82,23.94,63.78,25.78,32.28,61.17,38.88,69.8,40.25,18.98.71,37.96,1.43,56.95,2.14,14.41-.71,28.83-1.43,43.25-2.14,2.99-.72,5.99-1.43,8.99-2.14.57-33.83,1.14-67.66,1.71-101.49l47.53-10.7-47.96-80.93s-2.14-64.24-10.7-75.37l24.55-25.83s19.41,31.54,20.13,91.63l45.67,76.79c.73,1.66,6.09,14.5-.88,28.01Z"/>
    <g>
      <path class="cls-1" d="m132.03,346.31s-19.7-113.48,82.22-178.14c101.91-64.66,209.39-.86,217.53,15.42l24.84-24.41s-119.47-114.33-274.05-11.13c0,0-116.47,79.65-79.22,227.38l28.69-29.12Z"/>
      <path class="cls-1" d="m545.29,219.6c9.16-14.82,8.21-34.86,19.57-48.07,6.36-7.4,15.71-11.51,24.98-14.55,9.27-3.04,18.91-5.3,27.45-10.03-14.22-8.55-33.06-7.85-45.96-18.28-8.18-6.61-12.65-16.73-15.81-26.76-3.15-10.03-5.32-20.47-10.22-29.78-5.01,14.37-10.03,28.74-15.04,43.1-2.03,5.81-4.5,11.31-10.48,13.79-7.57,3.14-15.37,5.58-23.08,8.36-7.79,2.81-15.58,5.62-23.37,8.42,13.84,8.92,32.68,8.07,45.52,18.38,8.08,6.49,12.5,16.45,15.7,26.31,3.2,9.85,5.55,20.13,10.73,29.1Z"/>
      <path class="cls-1" d="m576.08,401.28l-45.67-76.79c-.72-60.09-20.13-91.63-20.13-91.63l-24.55,25.83c8.56,11.13,10.7,75.37,10.7,75.37l47.96,80.93-47.53,10.7c-.57,33.83-1.14,67.66-1.71,101.49-3,.71-6,1.42-8.99,2.14-14.42.71-28.84,1.43-43.25,2.14-18.99-.71-37.97-1.43-56.95-2.14-8.63-1.37-44.02-7.97-69.8-40.25-20.73-25.96-23.45-53.72-23.94-63.78l40.21,36.64,137.46-140.03c2.99-9.84-3.86-41.53-3.86-41.53l-133.6,133.6-68.94-68.51c-29.84,30.61-59.69,61.21-89.54,91.82-6.24-10.29-12.33-18.98-17.67-26.01,35.73-35.78,71.45-71.57,107.18-107.35,23.39,22.74,46.79,45.48,70.18,68.22,57.91-57.9,115.82-115.8,173.73-173.7-8.17-7.55-16.35-15.09-24.53-22.63-49.86,49.47-99.72,98.94-149.59,148.41-23.47-23.24-46.94-46.49-70.41-69.73-21.96,22.27-44.17,44.31-65.88,66.81-24.36,25.24-49.08,50.21-73.88,75.01-3.08,3.12-6.32,6.56-6.91,10.9-.48,3.43.81,6.85,2.25,10.01,9.39,20.64,25.94,37.12,37.53,56.61,23.39,39.33,24.89,87.43,25.75,133.18.02,0,.04.03.06.05v34.08h235.3v-77.5h63.96c39.39-1.78,46.67-36.03,46.67-36.03l2.15-74.94,23.12-6.42c1.77-.38,15.29-3.47,22.24-16.96,6.97-13.51,1.61-26.35.88-28.01Zm-193.1,205.78h-165.49c1.02-23.83-.23-60.85-13.59-103.47-4.46-14.21-9.66-27.13-15.16-38.75.03.05.05.09.08.14,23.74-23,47.49-46,71.24-69,0,0,6.28,5.73,0,.01-1.43,9.32-2.39,20.2-2.19,32.32.12,7.06.62,13.63,1.34,19.65,24.4,101.91,123.77,114.76,123.77,114.76v44.34Z"/>
    </g>
  </g>
</svg>